<mxfile host="app.diagrams.net" modified="2021-03-10T05:31:45.906Z" agent="5.0 (Windows NT 10.0; Win64; x64) AppleWebKit/537.36 (KHTML, like Gecko) Chrome/88.0.4324.190 Safari/537.36" etag="fQBgkv88aP7c8IDuTLoT" version="14.4.6" type="github">
  <diagram id="G51yq77fBeGaa_wuYlvk" name="Page-1">
    <mxGraphModel dx="1422" dy="800" grid="1" gridSize="10" guides="1" tooltips="1" connect="1" arrows="1" fold="1" page="1" pageScale="1" pageWidth="850" pageHeight="1100" math="0" shadow="0">
      <root>
        <mxCell id="0" />
        <mxCell id="1" parent="0" />
        <mxCell id="G3TwokHNa08a8Cz9YjGj-3" value="" style="shape=datastore;whiteSpace=wrap;html=1;" vertex="1" parent="1">
          <mxGeometry x="630" y="220" width="100" height="100" as="geometry" />
        </mxCell>
        <mxCell id="G3TwokHNa08a8Cz9YjGj-1" value="" style="image;html=1;image=img/lib/clip_art/computers/Server_Rack_128x128.png;fontFamily=Helvetica;fontSize=12;fontColor=#000000;align=center;strokeColor=#000000;fillColor=#ffffff;" vertex="1" parent="1">
          <mxGeometry x="370" y="225" width="160" height="110" as="geometry" />
        </mxCell>
        <mxCell id="G3TwokHNa08a8Cz9YjGj-2" value="MongoDB" style="text;html=1;strokeColor=none;fillColor=none;align=center;verticalAlign=middle;whiteSpace=wrap;rounded=0;" vertex="1" parent="1">
          <mxGeometry x="660" y="267.5" width="40" height="20" as="geometry" />
        </mxCell>
        <mxCell id="G3TwokHNa08a8Cz9YjGj-4" value="NodeJS&lt;br&gt;Express" style="text;html=1;strokeColor=none;fillColor=none;align=center;verticalAlign=middle;whiteSpace=wrap;rounded=0;" vertex="1" parent="1">
          <mxGeometry x="430" y="190" width="40" height="20" as="geometry" />
        </mxCell>
        <mxCell id="G3TwokHNa08a8Cz9YjGj-6" value="" style="aspect=fixed;pointerEvents=1;shadow=0;dashed=0;html=1;strokeColor=none;labelPosition=center;verticalLabelPosition=bottom;verticalAlign=top;align=center;fillColor=#00188D;shape=mxgraph.azure.computer" vertex="1" parent="1">
          <mxGeometry x="180" y="225" width="116.67" height="105" as="geometry" />
        </mxCell>
        <mxCell id="G3TwokHNa08a8Cz9YjGj-7" value="ReactJS" style="text;html=1;strokeColor=none;fillColor=none;align=center;verticalAlign=middle;whiteSpace=wrap;rounded=0;" vertex="1" parent="1">
          <mxGeometry x="218" y="260" width="40" height="20" as="geometry" />
        </mxCell>
        <mxCell id="G3TwokHNa08a8Cz9YjGj-9" value="Frontend" style="text;html=1;strokeColor=none;fillColor=none;align=center;verticalAlign=middle;whiteSpace=wrap;rounded=0;" vertex="1" parent="1">
          <mxGeometry x="218" y="360" width="40" height="20" as="geometry" />
        </mxCell>
        <mxCell id="G3TwokHNa08a8Cz9YjGj-10" value="Backend" style="text;html=1;strokeColor=none;fillColor=none;align=center;verticalAlign=middle;whiteSpace=wrap;rounded=0;" vertex="1" parent="1">
          <mxGeometry x="430" y="360" width="40" height="20" as="geometry" />
        </mxCell>
        <mxCell id="G3TwokHNa08a8Cz9YjGj-11" value="Database" style="text;html=1;strokeColor=none;fillColor=none;align=center;verticalAlign=middle;whiteSpace=wrap;rounded=0;" vertex="1" parent="1">
          <mxGeometry x="660" y="360" width="40" height="20" as="geometry" />
        </mxCell>
        <mxCell id="G3TwokHNa08a8Cz9YjGj-12" value="" style="endArrow=classic;startArrow=classic;html=1;" edge="1" parent="1" target="G3TwokHNa08a8Cz9YjGj-1">
          <mxGeometry width="50" height="50" relative="1" as="geometry">
            <mxPoint x="310" y="280" as="sourcePoint" />
            <mxPoint x="450" y="380" as="targetPoint" />
          </mxGeometry>
        </mxCell>
        <mxCell id="G3TwokHNa08a8Cz9YjGj-13" value="" style="endArrow=classic;startArrow=classic;html=1;" edge="1" parent="1" source="G3TwokHNa08a8Cz9YjGj-1">
          <mxGeometry width="50" height="50" relative="1" as="geometry">
            <mxPoint x="520" y="310" as="sourcePoint" />
            <mxPoint x="600" y="280" as="targetPoint" />
          </mxGeometry>
        </mxCell>
      </root>
    </mxGraphModel>
  </diagram>
</mxfile>
